<svg
  fill="none"
  height="58"
  viewBox="0 0 273 58"
  width="273"
  xmlns="http://www.w3.org/2000/svg"
>
  <path d="M33.5 13V4H3.5V37H33.5V28" stroke="#019E90" stroke-width="7" />
  <path d="M21.5 30V21H51.5V54H21.5V45" stroke="#019E90" stroke-width="7" />
  <path
    d="M80.944 46.46C79.196 46.46 77.5707 46.23 76.068 45.77C74.596 45.31 73.2467 44.62 72.02 43.7C70.824 42.7493 69.7507 41.584 68.8 40.204L72.204 36.294C73.7067 38.4407 75.148 39.928 76.528 40.756C77.908 41.584 79.5487 41.998 81.45 41.998C82.6153 41.998 83.6733 41.814 84.624 41.446C85.5747 41.078 86.326 40.572 86.878 39.928C87.43 39.284 87.706 38.548 87.706 37.72C87.706 37.168 87.614 36.6467 87.43 36.156C87.246 35.6653 86.9547 35.2207 86.556 34.822C86.188 34.4233 85.6973 34.0553 85.084 33.718C84.5013 33.3807 83.8113 33.0893 83.014 32.844C82.2167 32.568 81.2967 32.338 80.254 32.154C78.598 31.8167 77.1567 31.372 75.93 30.82C74.7033 30.268 73.676 29.578 72.848 28.75C72.02 27.922 71.4067 26.9867 71.008 25.944C70.6093 24.8707 70.41 23.6747 70.41 22.356C70.41 21.068 70.686 19.872 71.238 18.768C71.8207 17.664 72.6027 16.7133 73.584 15.916C74.596 15.088 75.7767 14.4593 77.126 14.03C78.4753 13.57 79.932 13.34 81.496 13.34C83.152 13.34 84.67 13.5547 86.05 13.984C87.43 14.4133 88.6567 15.0573 89.73 15.916C90.8033 16.744 91.6927 17.7713 92.398 18.998L88.902 22.448C88.2887 21.436 87.5987 20.5927 86.832 19.918C86.0653 19.2127 85.222 18.6913 84.302 18.354C83.382 17.986 82.4007 17.802 81.358 17.802C80.162 17.802 79.1193 17.986 78.23 18.354C77.3407 18.722 76.6353 19.2433 76.114 19.918C75.6233 20.562 75.378 21.3287 75.378 22.218C75.378 22.862 75.5007 23.46 75.746 24.012C75.9913 24.5333 76.3593 25.0087 76.85 25.438C77.3713 25.8367 78.0613 26.2047 78.92 26.542C79.7787 26.8487 80.806 27.1247 82.002 27.37C83.6887 27.738 85.1913 28.2133 86.51 28.796C87.8287 29.348 88.948 30.0073 89.868 30.774C90.788 31.5407 91.478 32.3993 91.938 33.35C92.4287 34.3007 92.674 35.328 92.674 36.432C92.674 38.4867 92.1987 40.2653 91.248 41.768C90.2973 43.2707 88.948 44.436 87.2 45.264C85.452 46.0613 83.3667 46.46 80.944 46.46ZM108.775 46.46C106.536 46.46 104.528 45.908 102.749 44.804C101.001 43.7 99.6057 42.1973 98.5631 40.296C97.5511 38.3947 97.0451 36.2633 97.0451 33.902C97.0451 31.5407 97.5511 29.4093 98.5631 27.508C99.6057 25.6067 101.001 24.104 102.749 23C104.528 21.896 106.536 21.344 108.775 21.344C110.922 21.344 112.869 21.7887 114.617 22.678C116.396 23.5367 117.745 24.7173 118.665 26.22L116.043 29.44C115.552 28.7347 114.924 28.0907 114.157 27.508C113.39 26.9253 112.578 26.4653 111.719 26.128C110.86 25.7907 110.032 25.622 109.235 25.622C107.763 25.622 106.444 25.99 105.279 26.726C104.144 27.4313 103.24 28.4127 102.565 29.67C101.89 30.9273 101.553 32.338 101.553 33.902C101.553 35.466 101.906 36.8767 102.611 38.134C103.316 39.3607 104.252 40.342 105.417 41.078C106.582 41.814 107.87 42.182 109.281 42.182C110.109 42.182 110.906 42.044 111.673 41.768C112.47 41.492 113.237 41.078 113.973 40.526C114.709 39.974 115.399 39.2993 116.043 38.502L118.665 41.722C117.684 43.102 116.273 44.2367 114.433 45.126C112.624 46.0153 110.738 46.46 108.775 46.46ZM123.134 46V11.96H127.872V26.818L127.044 27.37C127.351 26.2967 127.949 25.3153 128.838 24.426C129.728 23.506 130.786 22.77 132.012 22.218C133.239 21.6353 134.496 21.344 135.784 21.344C137.624 21.344 139.158 21.712 140.384 22.448C141.611 23.1533 142.531 24.242 143.144 25.714C143.758 27.186 144.064 29.0413 144.064 31.28V46H139.326V31.602C139.326 30.222 139.142 29.0873 138.774 28.198C138.406 27.278 137.839 26.6187 137.072 26.22C136.306 25.7907 135.355 25.6067 134.22 25.668C133.3 25.668 132.457 25.8213 131.69 26.128C130.924 26.404 130.249 26.8027 129.666 27.324C129.114 27.8453 128.67 28.4587 128.332 29.164C128.026 29.8387 127.872 30.5747 127.872 31.372V46H125.526C125.128 46 124.729 46 124.33 46C123.932 46 123.533 46 123.134 46ZM160.566 46.46C158.358 46.46 156.38 45.9233 154.632 44.85C152.914 43.746 151.55 42.2587 150.538 40.388C149.526 38.4867 149.02 36.3247 149.02 33.902C149.02 31.4793 149.51 29.3327 150.492 27.462C151.504 25.5607 152.868 24.0733 154.586 23C156.303 21.896 158.25 21.344 160.428 21.344C161.624 21.344 162.774 21.5433 163.878 21.942C165.012 22.31 166.024 22.8313 166.914 23.506C167.803 24.15 168.493 24.8707 168.984 25.668C169.505 26.4347 169.766 27.2167 169.766 28.014L168.386 28.106V11.96H173.124V46H168.386V40.25H169.306C169.306 40.986 169.06 41.722 168.57 42.458C168.079 43.1633 167.42 43.8227 166.592 44.436C165.794 45.0493 164.859 45.54 163.786 45.908C162.743 46.276 161.67 46.46 160.566 46.46ZM161.21 42.366C162.651 42.366 163.924 41.998 165.028 41.262C166.132 40.526 166.99 39.5293 167.604 38.272C168.248 36.984 168.57 35.5273 168.57 33.902C168.57 32.2767 168.248 30.8353 167.604 29.578C166.99 28.29 166.132 27.278 165.028 26.542C163.924 25.806 162.651 25.438 161.21 25.438C159.768 25.438 158.496 25.806 157.392 26.542C156.288 27.278 155.414 28.29 154.77 29.578C154.156 30.8353 153.85 32.2767 153.85 33.902C153.85 35.5273 154.156 36.984 154.77 38.272C155.414 39.5293 156.288 40.526 157.392 41.262C158.496 41.998 159.768 42.366 161.21 42.366ZM188.829 46.46C187.111 46.46 185.609 46.0613 184.321 45.264C183.063 44.4667 182.082 43.3473 181.377 41.906C180.702 40.4647 180.365 38.7473 180.365 36.754V21.85H185.103V35.466C185.103 36.8767 185.317 38.1033 185.747 39.146C186.207 40.158 186.851 40.94 187.679 41.492C188.537 42.044 189.565 42.32 190.761 42.32C191.65 42.32 192.463 42.182 193.199 41.906C193.935 41.5993 194.563 41.1853 195.085 40.664C195.637 40.1427 196.066 39.514 196.373 38.778C196.679 38.042 196.833 37.2447 196.833 36.386V21.85H201.571V46H196.833V40.94L197.661 40.388C197.293 41.5227 196.664 42.55 195.775 43.47C194.916 44.39 193.889 45.126 192.693 45.678C191.497 46.1993 190.209 46.46 188.829 46.46ZM208.308 46V11.96H213.046V46H208.308ZM230.582 46.46C228.098 46.46 225.89 45.9387 223.958 44.896C222.057 43.8227 220.554 42.366 219.45 40.526C218.377 38.686 217.84 36.57 217.84 34.178C217.84 32.2767 218.147 30.544 218.76 28.98C219.373 27.416 220.217 26.0667 221.29 24.932C222.394 23.7667 223.697 22.8773 225.2 22.264C226.733 21.62 228.389 21.298 230.168 21.298C231.732 21.298 233.189 21.6047 234.538 22.218C235.887 22.8007 237.053 23.6133 238.034 24.656C239.046 25.6987 239.813 26.9407 240.334 28.382C240.886 29.7927 241.147 31.3413 241.116 33.028L241.07 35.052H221.336L220.278 31.28H236.976L236.286 32.062V30.958C236.194 29.946 235.857 29.0413 235.274 28.244C234.691 27.4467 233.955 26.818 233.066 26.358C232.177 25.898 231.211 25.668 230.168 25.668C228.512 25.668 227.117 25.99 225.982 26.634C224.847 27.2473 223.989 28.1673 223.406 29.394C222.823 30.59 222.532 32.0773 222.532 33.856C222.532 35.5427 222.885 37.0147 223.59 38.272C224.295 39.4987 225.292 40.4493 226.58 41.124C227.868 41.7987 229.355 42.136 231.042 42.136C232.238 42.136 233.342 41.9367 234.354 41.538C235.397 41.1393 236.516 40.4187 237.712 39.376L240.104 42.734C239.368 43.47 238.463 44.114 237.39 44.666C236.347 45.218 235.228 45.6627 234.032 46C232.867 46.3067 231.717 46.46 230.582 46.46ZM256.339 46.46C254.131 46.46 252.153 45.9233 250.405 44.85C248.688 43.746 247.323 42.2587 246.311 40.388C245.299 38.4867 244.793 36.3247 244.793 33.902C244.793 31.4793 245.284 29.3327 246.265 27.462C247.277 25.5607 248.642 24.0733 250.359 23C252.076 21.896 254.024 21.344 256.201 21.344C257.397 21.344 258.547 21.5433 259.651 21.942C260.786 22.31 261.798 22.8313 262.687 23.506C263.576 24.15 264.266 24.8707 264.757 25.668C265.278 26.4347 265.539 27.2167 265.539 28.014L264.159 28.106V11.96H268.897V46H264.159V40.25H265.079C265.079 40.986 264.834 41.722 264.343 42.458C263.852 43.1633 263.193 43.8227 262.365 44.436C261.568 45.0493 260.632 45.54 259.559 45.908C258.516 46.276 257.443 46.46 256.339 46.46ZM256.983 42.366C258.424 42.366 259.697 41.998 260.801 41.262C261.905 40.526 262.764 39.5293 263.377 38.272C264.021 36.984 264.343 35.5273 264.343 33.902C264.343 32.2767 264.021 30.8353 263.377 29.578C262.764 28.29 261.905 27.278 260.801 26.542C259.697 25.806 258.424 25.438 256.983 25.438C255.542 25.438 254.269 25.806 253.165 26.542C252.061 27.278 251.187 28.29 250.543 29.578C249.93 30.8353 249.623 32.2767 249.623 33.902C249.623 35.5273 249.93 36.984 250.543 38.272C251.187 39.5293 252.061 40.526 253.165 41.262C254.269 41.998 255.542 42.366 256.983 42.366Z"
    fill="black"
  />
</svg>
